<svg xmlns="http://www.w3.org/2000/svg" width="500" height="300" viewBox="0 0 500 300">
  <metadata><?xpacket begin="﻿" id="W5M0MpCehiHzreSzNTczkc9d"?>
<x:xmpmeta xmlns:x="adobe:ns:meta/" x:xmptk="Adobe XMP Core 5.6-c138 79.159824, 2016/09/14-01:09:01        ">
   <rdf:RDF xmlns:rdf="http://www.w3.org/1999/02/22-rdf-syntax-ns#">
      <rdf:Description rdf:about=""/>
   </rdf:RDF>
</x:xmpmeta>
                                                                                                    
                                                                                                    
                                                                                                    
                                                                                                    
                                                                                                    
                                                                                                    
                                                                                                    
                                                                                                    
                                                                                                    
                                                                                                    
                                                                                                    
                                                                                                    
                                                                                                    
                                                                                                    
                                                                                                    
                                                                                                    
                                                                                                    
                                                                                                    
                                                                                                    
                                                                                                    
                           
<?xpacket end="w"?></metadata>
<defs>
    <style>
      .cls-1 {
        font-size: 199.999px;
        font-family: "Franklin Gothic Heavy";
      }

      .cls-2 {
        fill-rule: evenodd;
      }
    </style>
  </defs>
  <text id="GASJ" class="cls-1" x="15.528" y="202.685">GASJ</text>
  <path id="Color_Fill_1" data-name="Color Fill 1" class="cls-2" d="M82.227,127.979V156.3H104.3q-0.1,7.814-5.322,12.3A18.736,18.736,0,0,1,86.329,173.1q-9.18,0-15.625-7.373t-6.445-30.518q0-38.28,20.117-38.281,15.331,0,18.262,20.8l39.648-3.907q-4.3-22.265-18.847-34.374T85.059,67.334q-31.739,0-47.8,20.361T21.192,137.939q0,30.762,16.6,48.78t42.383,18.017q24.316,0,36.719-16.015a79.621,79.621,0,0,1,5.371,13.964h20.019V127.979H82.227Zm196.9,74.706-41.808-133.3H194.057l-41.152,133.3h33.219l8-26.269h35.71l7.533,26.269h41.756Zm-67.261-94.039,10.785,38.668H201.083Zm125.928,96.09q26.659,0,43.066-12.556t16.406-32.787a37.256,37.256,0,0,0-6.733-22.232,36.658,36.658,0,0,0-16.794-13.322q-10.062-3.891-33.991-8.952-8.693-1.85-11.72-3.9A6.562,6.562,0,0,1,325,105.225q0-8.3,13.379-8.3,16.113,0,21.386,13.379l33.887-10.254q-13.087-32.714-53.808-32.715-26.857,0-41.162,12.5t-14.307,31.355a36.465,36.465,0,0,0,9.958,25.5q9.955,10.844,45.021,17.563,9.18,1.851,12.745,4.243a7.616,7.616,0,0,1,3.565,6.69q0,8.2-15.43,8.2-19.825,0-24.609-16.114l-37.988,6.836q11.426,40.628,60.156,40.625h0Zm97.07-135.351v83.984q0,10.645-3.711,14.7t-12.5,4.053a58.8,58.8,0,0,1-16.016-2.441v31.836a107.2,107.2,0,0,0,27.344,3.222q17.187,0,27.246-5.908t13.525-16.016q3.467-10.107,3.467-29.443V69.385H434.863Z"/>
</svg>
